G04*
G04 #@! TF.GenerationSoftware,Altium Limited,Altium Designer,25.2.1 (25)*
G04*
G04 Layer_Physical_Order=1*
G04 Layer_Color=255*
%FSLAX44Y44*%
%MOMM*%
G71*
G04*
G04 #@! TF.SameCoordinates,3AE894FB-23F7-4F01-8F5F-E61770B14ED4*
G04*
G04*
G04 #@! TF.FilePolarity,Positive*
G04*
G01*
G75*
%ADD19C,1.2192*%
%ADD20R,1.2192X1.2192*%
%ADD21C,1.0000*%
%ADD22C,1.5300*%
%ADD23C,1.2400*%
%ADD24R,1.2400X1.2400*%
%ADD25R,1.2400X1.2400*%
%ADD26R,1.5300X1.5300*%
D19*
X1243184Y783214D02*
D03*
X1069489Y792061D02*
D03*
D20*
X1223372Y783214D02*
D03*
X1049677Y792061D02*
D03*
D21*
X547412Y362140D02*
X567622Y382350D01*
X483900Y362140D02*
X547412D01*
X476026Y370014D02*
X483900Y362140D01*
X476026Y370014D02*
Y705616D01*
X487417Y717008D01*
X542222Y382350D02*
X557572Y397700D01*
X609630D01*
X610919Y396411D01*
X1057687D01*
X1072877Y411601D01*
X988638Y325447D02*
X1011615Y348424D01*
X1118392D01*
X1155222Y311594D01*
X1278920D01*
X1342166Y374840D01*
Y447113D01*
X1123677Y665601D02*
X1342166Y447113D01*
X1265019Y325447D02*
Y346460D01*
X1199877Y411601D02*
X1265019Y346460D01*
X1014038Y325447D02*
X1062181Y277304D01*
X1266728D01*
X1354866Y365442D01*
Y459813D01*
X1149077Y665601D02*
X1354866Y459813D01*
X322356Y553721D02*
X336263Y539814D01*
X322356Y553721D02*
Y605726D01*
X448848Y732218D01*
X548407D01*
X563617Y717008D01*
X1135067Y763888D02*
X1234723D01*
X1243184Y783214D01*
X1015681Y583005D02*
X1098277Y665601D01*
X799055Y583005D02*
X1015681D01*
X753288Y628772D02*
X799055Y583005D01*
X753288Y628772D02*
Y761077D01*
X823420Y831208D01*
X925083D01*
X968478Y787814D01*
X788700Y709636D02*
X866878Y787814D01*
X788700Y665745D02*
Y709636D01*
Y665745D02*
X852148Y602298D01*
X1009573D01*
X1072877Y665601D01*
X813308Y708844D02*
X892278Y787814D01*
X813308Y662250D02*
Y708844D01*
Y662250D02*
X852200Y623358D01*
X1005234D01*
X1047477Y665601D01*
X538217Y717008D02*
X803508Y451717D01*
X1083562D01*
X1123677Y411601D01*
X833206Y703342D02*
X917678Y787814D01*
X833206Y671456D02*
Y703342D01*
Y671456D02*
X864900Y639762D01*
X970838D01*
X996677Y665601D01*
X920477D02*
X993878Y739002D01*
Y787814D01*
X895077Y665601D02*
Y739814D01*
X943078Y787814D01*
D22*
X516822Y382350D02*
D03*
X542222D02*
D03*
X567622D02*
D03*
X491422D02*
D03*
X869677Y665601D02*
D03*
X895077D02*
D03*
X920477D02*
D03*
X945877D02*
D03*
X971277D02*
D03*
X996677D02*
D03*
X1022077D02*
D03*
X1047477D02*
D03*
X1072877D02*
D03*
X1098277D02*
D03*
X1123677D02*
D03*
X1149077D02*
D03*
X1174477D02*
D03*
X1199877D02*
D03*
X1225277D02*
D03*
X1250677D02*
D03*
X1276077D02*
D03*
X1301477D02*
D03*
X1326877D02*
D03*
Y411601D02*
D03*
X1301477D02*
D03*
X1276077D02*
D03*
X1250677D02*
D03*
X1225277D02*
D03*
X1199877D02*
D03*
X1174477D02*
D03*
X1149077D02*
D03*
X1123677D02*
D03*
X1098277D02*
D03*
X1072877D02*
D03*
X1047477D02*
D03*
X1022077D02*
D03*
X996677D02*
D03*
X971277D02*
D03*
X945877D02*
D03*
X920477D02*
D03*
X895077D02*
D03*
X563617Y717008D02*
D03*
X487417D02*
D03*
X512817D02*
D03*
X538217D02*
D03*
D23*
X993878Y787814D02*
D03*
X968478D02*
D03*
X943078D02*
D03*
X917678D02*
D03*
X892278D02*
D03*
X866878D02*
D03*
X841478D02*
D03*
X1039438Y325447D02*
D03*
X1014038D02*
D03*
X963238D02*
D03*
X988638D02*
D03*
X1265019D02*
D03*
X1239619D02*
D03*
X1214219D02*
D03*
X336263Y590614D02*
D03*
Y565214D02*
D03*
X1333324Y799269D02*
D03*
X1135067Y789288D02*
D03*
Y763888D02*
D03*
D24*
X816078Y787814D02*
D03*
X937838Y325447D02*
D03*
X1188819D02*
D03*
D25*
X336263Y539814D02*
D03*
X1333324Y773869D02*
D03*
X1135067Y814688D02*
D03*
D26*
X869677Y411601D02*
D03*
M02*
