M48
;Layer_Color=9474304
;FILE_FORMAT=4:4
METRIC,LZ
;TYPE=PLATED
T01F00S00C0.7112
T02F00S00C0.8900
T03F00S00C1.0200
%
T01
X01049677Y00792061
X01069489
X01223372Y00783214
X01243184
T02
X00963238Y00325447
X00988638
X01014038
X01039438
X01188819
X01214219
X01239619
X01265019
X00937838
X00336263Y00539814
Y00565214
Y00590614
X00816078Y00787814
X00841478
X00866878
X00892278
X00917678
X00943078
X00968478
X00993878
X01135067Y00789288
Y00814688
Y00763888
X01333324Y00773869
Y00799269
T03
X00971277Y00411601
X00996677
X01022077
X01047477
X01072877
X01098277
X01123677
X01149077
X01174477
X01199877
X01225277
X01250677
X01276077
X01301477
X01326877
X00945877
X00920477
X00895077
X00869677
X00567622Y0038235
X00542222
X00516822
X00491422
X00487417Y00717008
X00512817
X00538217
X00563617
X00869677Y00665601
X00895077
X00920477
X00945877
X00971277
X00996677
X01022077
X01047477
X01072877
X01098277
X01123677
X01149077
X01174477
X01199877
X01225277
X01250677
X01276077
X01301477
X01326877
M30
